<svg id="SvgjsSvg1001" width="288" height="288" xmlns="http://www.w3.org/2000/svg" version="1.1" xmlns:xlink="http://www.w3.org/1999/xlink" xmlns:svgjs="http://svgjs.com/svgjs"><defs id="SvgjsDefs1002"></defs><g id="SvgjsG1008" transform="matrix(1,0,0,1,0,0)"><svg xmlns="http://www.w3.org/2000/svg" width="288" height="288" viewBox="-16 0 448 448"><path d="M127.433594 96h32v224h-32zm0 0M175.433594 320h192v-224h-192zm16-192h160v16h-160zm0 48h160v16h-160zm0 48h160v16h-160zm0 48h160v16h-160zm0 0M127.433594 48h32v32h-32zm0 0" fill="#52cc99" class="color000 svgShape"></path><path d="m415.433594 0h-336v384h248c4.417968 0 8 3.582031 8 8 .035156 30.914062 25.085937 55.964844 56 56 13.253906 0 24-10.746094 24-24zm-32 328c0 4.417969-3.582032 8-8 8h-256c-4.417969 0-8-3.582031-8-8v-288c0-4.417969 3.582031-8 8-8h256c4.417968 0 8 3.582031 8 8zm0 0" fill="#52cc99" class="color000 svgShape"></path><path d="M175.433594 48h192v32h-192zm0 0M0 400c4.011719 27.535156 27.605469 47.964844 55.433594 48h290.789062c-14.761718-11.90625-24.230468-29.152344-26.351562-48zm0 0" fill="#52cc99" class="color000 svgShape"></path></svg></g></svg>